<svg xmlns="http://www.w3.org/2000/svg" width="144" height="144" stroke="#000" stroke-linecap="round" stroke-linejoin="round" fill="#fff" fill-rule="evenodd"><defs><linearGradient id="A" x1="0%" y1="0%" x2="100%" y2="100%"><stop offset="0%" stop-color="#0af"/><stop offset="100%" stop-color="#00387f"/></linearGradient></defs><path d="M25.2927.0942c-2.962.6647-4.1372 1.1502-6.9918 2.813-6.3865 3.7789-8.848 10.4337-6.35 17.1171.535 1.4518.6067 2.0874.3202 2.5406-.7481 1.2097.5346 4.5365 2.3552 6.0187.6409.5143.8933 1.1493 1.0346 2.4495.2495 2.1472 1.8184 5.1413 3.6024 6.7746 1.249 1.1798 1.2855 1.27 1.2855 3.6899 0 1.7238-.1426 2.5101-.4301 2.5708-.2489.0603-1.5687.302-2.9595.6045-4.2104.8168-7.4562 2.419-10.8823 5.3227-1.9601 1.6328-3.4938 3.2358-4.2066 4.4458C.8188 56.4377-.5 60.3383-.5 62.0017V63h31.75H63v-.9983c0-1.6634-1.3188-5.564-2.5693-7.5603-.7135-1.1795-2.3182-2.8428-4.2076-4.4458-3.4251-2.9333-6.6353-4.4758-10.8823-5.3227-1.3552-.3025-2.7096-.5442-2.9239-.6045-.3221-.0607-.4647-.847-.4647-2.5708 0-2.4199.0358-2.5101 1.2856-3.6899 1.7474-1.6333 3.3528-4.6274 3.6016-6.7746.142-1.3002.4302-1.9352 1.07-2.5095 1.9272-1.633 3.0686-4.749 2.247-6.0194-.3198-.5437-.2481-.968.3937-2.3883.679-1.3914.8216-2.3291.8216-4.8988.0352-2.9945-.0365-3.2976-1.1428-5.203-1.3552-2.3892-3.6734-4.2651-6.1343-4.9917-1.0385-.3021-1.9646-.8445-2.3554-1.3902-.9641-1.24-3.7465-2.8733-6.0295-3.5688-2.5332-.7557-6.9567-.7557-10.417.0308zm10.9168 1.8154c1.2117.4515 2.4974 1.27 3.7084 2.418 1.0369.937 2.2844 1.8151 2.7836 1.9053.5363.1215 1.7122.6352 2.6758 1.1798 1.3208.7565 2.0336 1.4512 2.9607 2.9943 1.0339 1.7847 1.2133 2.3285 1.2498 4.5374.0352 2.601-.8941 5.7459-2.1052 7.1077-.4654.5128-.5012.3022-.5364-2.0278 0-4.6269-1.7467-7.5604-5.458-9.1946l-1.9617-.8763-2.2479 1.7849c-1.356 1.0575-3.317 2.1779-4.8866 2.8129-2.5683 1.0283-2.7839 1.0581-7.3474 1.1485-2.5708.0296-5.1396.2126-5.7458.4233-2.3906.7575-3.744 2.6015-3.744 4.9908 0 .7551-.1442 1.36-.3234 1.36-.4259 0-2.0672-4.3843-2.3534-6.3508-.2853-2.117.535-5.5354 1.82-7.561 1.355-2.1172 4.672-4.686 7.3846-5.7761C26.8623.9113 32.463.5486 36.2095 1.9096zm6.0987 11.4022c2.5357 2.1764 2.8548 3.3556 2.8548 10.9474-.0358 6.5326-.2136 7.9232-1.4986 10.2518-1.4621 2.6311-6.4913 6.0791-8.8818 6.1097-.322 0-.8568.2721-1.2147.6048-.8906.8464-3.7442.8464-4.6355 0-.3572-.3327-.8574-.6048-1.1065-.6048-1.284 0-4.6043-1.6332-6.3148-3.0852-3.4603-2.9334-4.1373-4.9902-4.1738-12.1282 0-5.5039.3198-6.8046 1.8542-7.4998.5005-.2422 2.8194-.4838 6.0309-.575 4.9927-.1808 5.3154-.2417 7.8486-1.2394 1.4986-.6049 3.4941-1.7543 4.6002-2.6314 1.0708-.8458 2.1757-1.5422 2.4626-1.5719.2846 0 1.2469.635 2.1744 1.422zM15.5548 26.4665c0 .6349-.679.1215-1.0369-.756l-.3914-.9678.7141.7559c.3908.4242.7142.8465.7142.9679zm32.4276-.6656c-.2159.4848-.535.9071-.7128.9071-.466 0-.3937-.3921.2481-1.1489.7493-.9065.892-.8467.4647.2418zM26.7562 42.1327c2.0321.8159 4.0669 1.5118 4.4938 1.5118s2.4628-.6959 4.4948-1.5118c2.035-.8466 3.7817-1.512 3.8892-1.512s.1778.8468.1778 1.9053c0 1.7535-.1075 1.996-1.1401 2.8729-3.854 3.1147-10.9884 3.1147-14.8066 0-1.0684-.8769-1.1759-1.1194-1.1759-2.8729 0-1.0585.071-1.9053.1778-1.9053s1.8542.6654 3.8892 1.512zm-4.0318 4.597c.679.5138 2.1045 1.3004 3.175 1.7237 1.6764.6651 2.4615.7861 5.3506.7861s3.6752-.121 5.3516-.7861c1.0696-.4233 2.496-1.2099 3.175-1.7237 1.356-1.1192 2.3534-1.2099 5.3864-.5147 5.0659 1.1497 10.3811 4.3854 12.842 7.8938 1.3208 1.8448 2.8194 5.262 2.8552 6.3816v.6954H31.25c-28.3952 0-29.6099-.0302-29.6099-.545 0-.9975 1.1061-3.8105 2.2479-5.6549 1.6764-2.6615 5.5649-5.8674 8.8474-7.2284 2.9972-1.2399 5.5655-1.9356 7.493-1.9655.9974-.0302 1.6047.1815 2.496.9377z" stroke="none" fill-rule="nonzero" fill="url(#A)"/></svg>