<svg stroke-linejoin="round" stroke-linecap="round"
xmlns="http://www.w3.org/2000/svg" 
xmlns:xlink="http://www.w3.org/1999/xlink" stroke-width="1">

<view id="circle-tick-view" viewBox="0 0 16 16" />
<symbol id="circle-tick" viewBox="0 0 16 16">
  <circle cx="8" cy="8" r="7" fill="#12853e" class="success"/>
  <path d="M3 9 7 13 13 5" fill="#12853e" class="success-text" stroke="#F8F8F8" stroke-width="1" />
</symbol>
<use xlink:href="#circle-tick" x="0" y="0" width="16" height="16" id="id-circle-tick"></use>

<view id="warning2-view" viewBox="16 0 16 16" />
<symbol id="warning2" viewBox="0 0 16 16">
  <polygon points="8,1 1,14 15,14" fill="none" stroke="#bd2b17" />
  <text x="6" y="13" fill="#bd2b17" font-size=".7em">!</text>
</symbol>  
<use xlink:href="#warning2" x="16" y="0" width="16" height="16" id="id-warning2"></use>

<view id="warning-view" viewBox="32 0 16 16" />
<symbol id="warning" viewBox="0 0 16 16">
  <circle cx="8" cy="8" r="8" fill="#bd2b17" class="danger"/>
  <line x1="8" y1="3" x2="8" y2="10" stroke="#d7b0b7"/>
  <line x1="8" y1="13" x2="8" y2="13" stroke="#d7b0b7"/>
</symbol>  
<use xlink:href="#warning" x="32" y="0" width="16" height="16" id="id-warning"></use>

<view id="rupee-view" viewBox="48 0 16 16" />
<symbol id="rupee" viewBox="0 0 16 16" stroke-width="2">
  <path d="M 12 1 L 1 1 C 14 1 8 10 1 7 C 1 7 11 14 11 14" stroke="#333" fill="none"/>
  <line x1="1" y1="4" x2="12" y2="4" stroke="#333"/>
</symbol>
<use xlink:href="#rupee" x="48" y="0" width="16" height="16" id="id-rupee"></use>

<view id="facebook-view" viewBox="64 0 16 16" />
<symbol id="facebook" viewBox="0 0 32 32" stroke-width="2" fill="#4267B2"> 
  <path fill-rule="evenodd" d="M17.12 0.224v4.704h-2.784q-1.536 0-2.080 0.64t-0.544 1.92v3.392h5.248l-0.704 5.28h-4.544v13.568h-5.472v-13.568h-4.544v-5.28h4.544v-3.904q0-3.328 1.856-5.152t4.96-1.824q2.624 0 4.064 0.224z"></path>
</symbol>
<use xlink:href="#facebook" x="64" y="0" width="16" height="16" id="id-facebook"></use>

<view id="twitter-view" viewBox="80 0 16 16" />
<symbol id="twitter" viewBox="0 0 32 32" stroke-width="2" fill="#1DA1F2">
  <path fill-rule="evenodd" d="M28.928 7.296q-1.184 1.728-2.88 2.976 0 0.256 0 0.736 0 2.336-0.672 4.64t-2.048 4.448-3.296 3.744-4.608 2.624-5.792 0.96q-4.832 0-8.832-2.592 0.608 0.064 1.376 0.064 4.032 0 7.168-2.464-1.888-0.032-3.36-1.152t-2.048-2.848q0.608 0.096 1.088 0.096 0.768 0 1.536-0.192-2.016-0.416-3.328-1.984t-1.312-3.68v-0.064q1.216 0.672 2.624 0.736-1.184-0.8-1.888-2.048t-0.704-2.752q0-1.568 0.8-2.912 2.176 2.656 5.248 4.256t6.656 1.76q-0.16-0.672-0.16-1.312 0-2.4 1.696-4.064t4.064-1.696q2.528 0 4.224 1.824 1.952-0.384 3.68-1.408-0.672 2.048-2.56 3.2 1.664-0.192 3.328-0.896z"></path>
</symbol>
<use xlink:href="#twitter" x="80" y="0" width="16" height="16" id="id-twitter"></use>

<view id="github-view" viewBox="96 0 16 16" />
<symbol id="github" viewBox="0 0 16 16" stroke-width="2" fill="#333">
  <path fill-rule="evenodd" d="M8 0C3.58 0 0 3.58 0 8c0 3.54 2.29 6.53 5.47 7.59.4.07.55-.17.55-.38 0-.19-.01-.82-.01-1.49-2.01.37-2.53-.49-2.69-.94-.09-.23-.48-.94-.82-1.13-.28-.15-.68-.52-.01-.53.63-.01 1.08.58 1.23.82.72 1.21 1.87.87 2.33.66.07-.52.28-.87.51-1.07-1.78-.2-3.64-.89-3.64-3.95 0-.87.31-1.59.82-2.15-.08-.2-.36-1.02.08-2.12 0 0 .67-.21 2.2.82.64-.18 1.32-.27 2-.27.68 0 1.36.09 2 .27 1.53-1.04 2.2-.82 2.2-.82.44 1.1.16 1.92.08 2.12.51.56.82 1.27.82 2.15 0 3.07-1.87 3.75-3.65 3.95.29.25.54.73.54 1.48 0 1.07-.01 1.93-.01 2.2 0 .21.15.46.55.38A8.013 8.013 0 0016 8c0-4.42-3.58-8-8-8z"></path>
</symbol>
<use xlink:href="#github" x="96" y="0" width="16" height="16" id="id-github"></use>

<view id="linkedin-view" viewBox="112 0 16 16" />
<symbol id="linkedin" viewBox="0 0 24 24" stroke-width="2" fill="#0a66c2">
  <path d="M20.5 2h-17A1.5 1.5 0 002 3.5v17A1.5 1.5 0 003.5 22h17a1.5 1.5 0 001.5-1.5v-17A1.5 1.5 0 0020.5 2zM8 19H5v-9h3zM6.5 8.25A1.75 1.75 0 118.3 6.5a1.78 1.78 0 01-1.8 1.75zM19 19h-3v-4.74c0-1.42-.6-1.93-1.38-1.93A1.74 1.74 0 0013 14.19a.66.66 0 000 .14V19h-3v-9h2.9v1.3a3.11 3.11 0 012.7-1.4c1.55 0 3.36.86 3.36 3.66z"></path>
</symbol>
<use xlink:href="#linkedin" x="112" y="0" width="16" height="16" id="id-linkedin"></use>

  <symbol id="home" viewBox="0 0 16 16">
    <path d="M8.354 1.146a.5.5 0 0 0-.708 0l-6 6A.5.5 0 0 0 1.5 7.5v7a.5.5 0 0 0 .5.5h4.5a.5.5 0 0 0 .5-.5v-4h2v4a.5.5 0 0 0 .5.5H14a.5.5 0 0 0 .5-.5v-7a.5.5 0 0 0-.146-.354L13 5.793V2.5a.5.5 0 0 0-.5-.5h-1a.5.5 0 0 0-.5.5v1.293L8.354 1.146zM2.5 14V7.707l5.5-5.5 5.5 5.5V14H10v-4a.5.5 0 0 0-.5-.5h-3a.5.5 0 0 0-.5.5v4H2.5z"></path>
  </symbol>
  <symbol id="table" viewBox="0 0 16 16">
    <path d="M0 2a2 2 0 0 1 2-2h12a2 2 0 0 1 2 2v12a2 2 0 0 1-2 2H2a2 2 0 0 1-2-2V2zm15 2h-4v3h4V4zm0 4h-4v3h4V8zm0 4h-4v3h3a1 1 0 0 0 1-1v-2zm-5 3v-3H6v3h4zm-5 0v-3H1v2a1 1 0 0 0 1 1h3zm-4-4h4V8H1v3zm0-4h4V4H1v3zm5-3v3h4V4H6zm4 4H6v3h4V8z"></path>
  </symbol>
  <symbol id="people-circle" viewBox="0 0 16 16">
    <path d="M11 6a3 3 0 1 1-6 0 3 3 0 0 1 6 0z"></path>
    <path fill-rule="evenodd" d="M0 8a8 8 0 1 1 16 0A8 8 0 0 1 0 8zm8-7a7 7 0 0 0-5.468 11.37C3.242 11.226 4.805 10 8 10s4.757 1.225 5.468 2.37A7 7 0 0 0 8 1z"></path>
  </symbol>
  <symbol id="calendar3" viewBox="0 0 16 16">
    <path d="M14 0H2a2 2 0 0 0-2 2v12a2 2 0 0 0 2 2h12a2 2 0 0 0 2-2V2a2 2 0 0 0-2-2zM1 3.857C1 3.384 1.448 3 2 3h12c.552 0 1 .384 1 .857v10.286c0 .473-.448.857-1 .857H2c-.552 0-1-.384-1-.857V3.857z"></path>
    <path d="M6.5 7a1 1 0 1 0 0-2 1 1 0 0 0 0 2zm3 0a1 1 0 1 0 0-2 1 1 0 0 0 0 2zm3 0a1 1 0 1 0 0-2 1 1 0 0 0 0 2zm-9 3a1 1 0 1 0 0-2 1 1 0 0 0 0 2zm3 0a1 1 0 1 0 0-2 1 1 0 0 0 0 2zm3 0a1 1 0 1 0 0-2 1 1 0 0 0 0 2zm3 0a1 1 0 1 0 0-2 1 1 0 0 0 0 2zm-9 3a1 1 0 1 0 0-2 1 1 0 0 0 0 2zm3 0a1 1 0 1 0 0-2 1 1 0 0 0 0 2zm3 0a1 1 0 1 0 0-2 1 1 0 0 0 0 2z"></path>
  </symbol>
  <symbol id="chat-quote-fill" viewBox="0 0 16 16">
    <path d="M16 8c0 3.866-3.582 7-8 7a9.06 9.06 0 0 1-2.347-.306c-.584.296-1.925.864-4.181 1.234-.2.032-.352-.176-.273-.362.354-.836.674-1.95.77-2.966C.744 11.37 0 9.76 0 8c0-3.866 3.582-7 8-7s8 3.134 8 7zM7.194 6.766a1.688 1.688 0 0 0-.227-.272 1.467 1.467 0 0 0-.469-.324l-.008-.004A1.785 1.785 0 0 0 5.734 6C4.776 6 4 6.746 4 7.667c0 .92.776 1.666 1.734 1.666.343 0 .662-.095.931-.26-.137.389-.39.804-.81 1.22a.405.405 0 0 0 .011.59c.173.16.447.155.614-.01 1.334-1.329 1.37-2.758.941-3.706a2.461 2.461 0 0 0-.227-.4zM11 9.073c-.136.389-.39.804-.81 1.22a.405.405 0 0 0 .012.59c.172.16.446.155.613-.01 1.334-1.329 1.37-2.758.942-3.706a2.466 2.466 0 0 0-.228-.4 1.686 1.686 0 0 0-.227-.273 1.466 1.466 0 0 0-.469-.324l-.008-.004A1.785 1.785 0 0 0 10.07 6c-.957 0-1.734.746-1.734 1.667 0 .92.777 1.666 1.734 1.666.343 0 .662-.095.931-.26z"></path>
  </symbol>
  <symbol id="gear-fill" viewBox="0 0 16 16">
    <path d="M9.405 1.05c-.413-1.4-2.397-1.4-2.81 0l-.1.34a1.464 1.464 0 0 1-2.105.872l-.31-.17c-1.283-.698-2.686.705-1.987 1.987l.169.311c.446.82.023 1.841-.872 2.105l-.34.1c-1.4.413-1.4 2.397 0 2.81l.34.1a1.464 1.464 0 0 1 .872 2.105l-.17.31c-.698 1.283.705 2.686 1.987 1.987l.311-.169a1.464 1.464 0 0 1 2.105.872l.1.34c.413 1.4 2.397 1.4 2.81 0l.1-.34a1.464 1.464 0 0 1 2.105-.872l.31.17c1.283.698 2.686-.705 1.987-1.987l-.169-.311a1.464 1.464 0 0 1 .872-2.105l.34-.1c1.4-.413 1.4-2.397 0-2.81l-.34-.1a1.464 1.464 0 0 1-.872-2.105l.17-.31c.698-1.283-.705-2.686-1.987-1.987l-.311.169a1.464 1.464 0 0 1-2.105-.872l-.1-.34zM8 10.93a2.929 2.929 0 1 1 0-5.86 2.929 2.929 0 0 1 0 5.858z"></path>
  </symbol>
  <symbol id="speedometer" viewBox="0 0 16 16">
    <path d="M8 2a.5.5 0 0 1 .5.5V4a.5.5 0 0 1-1 0V2.5A.5.5 0 0 1 8 2zM3.732 3.732a.5.5 0 0 1 .707 0l.915.914a.5.5 0 1 1-.708.708l-.914-.915a.5.5 0 0 1 0-.707zM2 8a.5.5 0 0 1 .5-.5h1.586a.5.5 0 0 1 0 1H2.5A.5.5 0 0 1 2 8zm9.5 0a.5.5 0 0 1 .5-.5h1.5a.5.5 0 0 1 0 1H12a.5.5 0 0 1-.5-.5zm.754-4.246a.389.389 0 0 0-.527-.02L7.547 7.31A.91.91 0 1 0 8.85 8.569l3.434-4.297a.389.389 0 0 0-.029-.518z"></path>
    <path fill-rule="evenodd" d="M6.664 15.889A8 8 0 1 1 9.336.11a8 8 0 0 1-2.672 15.78zm-4.665-4.283A11.945 11.945 0 0 1 8 10c2.186 0 4.236.585 6.001 1.606a7 7 0 1 0-12.002 0z"></path>
  </symbol>
  <symbol id="toggles2" viewBox="0 0 16 16">
    <path d="M9.465 10H12a2 2 0 1 1 0 4H9.465c.34-.588.535-1.271.535-2 0-.729-.195-1.412-.535-2z"></path>
    <path d="M6 15a3 3 0 1 0 0-6 3 3 0 0 0 0 6zm0 1a4 4 0 1 1 0-8 4 4 0 0 1 0 8zm.535-10a3.975 3.975 0 0 1-.409-1H4a1 1 0 0 1 0-2h2.126c.091-.355.23-.69.41-1H4a2 2 0 1 0 0 4h2.535z"></path>
    <path d="M14 4a4 4 0 1 1-8 0 4 4 0 0 1 8 0z"></path>
  </symbol>
  <symbol id="tools" viewBox="0 0 16 16">
    <path d="M1 0L0 1l2.2 3.081a1 1 0 0 0 .815.419h.07a1 1 0 0 1 .708.293l2.675 2.675-2.617 2.654A3.003 3.003 0 0 0 0 13a3 3 0 1 0 5.878-.851l2.654-2.617.968.968-.305.914a1 1 0 0 0 .242 1.023l3.356 3.356a1 1 0 0 0 1.414 0l1.586-1.586a1 1 0 0 0 0-1.414l-3.356-3.356a1 1 0 0 0-1.023-.242L10.5 9.5l-.96-.96 2.68-2.643A3.005 3.005 0 0 0 16 3c0-.269-.035-.53-.102-.777l-2.14 2.141L12 4l-.364-1.757L13.777.102a3 3 0 0 0-3.675 3.68L7.462 6.46 4.793 3.793a1 1 0 0 1-.293-.707v-.071a1 1 0 0 0-.419-.814L1 0zm9.646 10.646a.5.5 0 0 1 .708 0l3 3a.5.5 0 0 1-.708.708l-3-3a.5.5 0 0 1 0-.708zM3 11l.471.242.529.026.287.445.445.287.026.529L5 13l-.242.471-.026.529-.445.287-.287.445-.529.026L3 15l-.471-.242L2 14.732l-.287-.445L1.268 14l-.026-.529L1 13l.242-.471.026-.529.445-.287.287-.445.529-.026L3 11z"></path>
  </symbol>
  
</svg>
